<?xml version="1.0" encoding="utf-8"?>
<!-- Generator: Adobe Illustrator 16.0.4, SVG Export Plug-In . SVG Version: 6.00 Build 0)  -->
<!DOCTYPE svg PUBLIC "-//W3C//DTD SVG 1.1//EN" "http://www.w3.org/Graphics/SVG/1.1/DTD/svg11.dtd">
<svg version="1.1" id="Layer_1" xmlns="http://www.w3.org/2000/svg" xmlns:xlink="http://www.w3.org/1999/xlink" x="0px" y="0px"
	 width="225px" height="225px" viewBox="0 0 225 225" enable-background="new 0 0 225 225" xml:space="preserve">
<g id="SkyServer">
	<g>
		<path id="Thick_ring" d="M195.746,88.419c41.345,44.899,40.033,97.333-22.256,103.733
			C102.787,199.416,20.798,144.036,5.521,89.131C-5.631,49.047,26.018,25.617,70.542,27.813
			C111.862,29.855,164.015,53.961,195.746,88.419z"/>
		<path id="Thin_ring" fill="#FFFFFF" d="M184.46,88.46c33.831,38.331,29.702,80.79-22.563,85.185
			c-57.992,4.881-125.884-39.178-140.884-84.572C9.524,54.308,35.752,33.047,74.884,34.749
			C111.515,36.341,157.582,58.008,184.46,88.46z"/>
		<path id="Plate" fill="#6357A4" d="M182.363,88.47c32.514,37.136,28.001,77.881-22.478,81.969
			c-55.789,4.516-121.212-37.644-136.077-81.374C12.328,55.28,37.59,34.45,75.709,36.066
			C111.448,37.578,156.365,58.772,182.363,88.47z"/>
		<g id="Big_Dipper">
			<path fill="#FFFFFF" d="M144.949,72.359c1.142,1.421,0.598,2.568-1.229,2.547c-1.83-0.021-4.23-1.211-5.345-2.641
				c-1.102-1.415-0.521-2.53,1.287-2.501C141.461,69.793,143.822,70.95,144.949,72.359z"/>
			<path fill="#FFFFFF" d="M127.157,56.151c0.992,1.269,0.385,2.265-1.371,2.218c-1.762-0.047-3.985-1.127-4.95-2.401
				c-0.959-1.261-0.315-2.229,1.421-2.177C123.986,53.846,126.176,54.896,127.157,56.151z"/>
			<path fill="#FFFFFF" d="M120.837,81.136c1.08,1.56,0.361,2.832-1.626,2.824c-1.992-0.006-4.471-1.298-5.517-2.866
				c-1.038-1.554-0.274-2.786,1.686-2.769C117.335,78.341,119.768,79.592,120.837,81.136z"/>
			<path fill="#FFFFFF" d="M101.373,70.469c0.95,1.46,0.134,2.638-1.832,2.614c-1.975-0.026-4.332-1.25-5.248-2.722
				c-0.909-1.456-0.055-2.596,1.888-2.564C98.117,67.833,100.436,69.024,101.373,70.469z"/>
			<path fill="#FFFFFF" d="M78.165,70.18c0.843,1.491-0.127,2.691-2.179,2.664c-2.06-0.026-4.394-1.276-5.203-2.78
				c-0.797-1.482,0.207-2.647,2.232-2.611C75.031,67.49,77.331,68.703,78.165,70.18z"/>
			<path fill="#FFFFFF" d="M59.221,68.519c0.747,1.5-0.344,2.705-2.454,2.675c-2.117-0.03-4.42-1.29-5.13-2.798
				c-0.703-1.493,0.423-2.658,2.504-2.619C56.213,65.816,58.481,67.037,59.221,68.519z"/>
			<path fill="#FFFFFF" d="M38.634,81.745c0.682,1.689-0.624,3.066-2.934,3.06c-2.315-0.003-4.723-1.403-5.358-3.101
				c-0.631-1.68,0.712-3.012,2.983-2.996C35.59,78.725,37.958,80.076,38.634,81.745z"/>
		</g>
		<g id="Southern_Cross">
			<path fill="#FFFFFF" d="M123.176,99.088c1.175,1.777,0.414,3.256-1.71,3.285c-2.134,0.029-4.802-1.417-5.937-3.206
				c-1.123-1.771-0.315-3.203,1.781-3.219C119.401,95.932,122.018,97.329,123.176,99.088z"/>
			<path fill="#FFFFFF" d="M153.282,111.107c1.376,1.884,0.799,3.475-1.312,3.527c-2.118,0.053-4.938-1.461-6.277-3.361
				c-1.325-1.877-0.692-3.416,1.391-3.455C149.156,107.779,151.924,109.242,153.282,111.107z"/>
			<path fill="#FFFFFF" d="M120.078,125.391c1.274,2.135,0.417,3.957-1.943,4.046c-2.368,0.09-5.305-1.603-6.533-3.757
				c-1.216-2.123-0.297-3.886,2.025-3.959C115.941,121.649,118.816,123.282,120.078,125.391z"/>
			<path fill="#FFFFFF" d="M156.475,126.549c1.473,2.089,0.887,3.873-1.336,3.963c-2.23,0.092-5.222-1.563-6.655-3.671
				c-1.416-2.081-0.767-3.807,1.425-3.882C152.09,122.89,155.02,124.486,156.475,126.549z"/>
			<path fill="#FFFFFF" d="M170.719,152.802c1.691,2.441,1.165,4.573-1.215,4.731c-2.386,0.158-5.681-1.736-7.327-4.2
				c-1.625-2.434-1.02-4.492,1.32-4.627C165.828,148.57,169.049,150.393,170.719,152.802z"/>
		</g>
	</g>
</g>
</svg>
